<svg width="30" height="32" viewBox="0 0 30 32" fill="none" xmlns="http://www.w3.org/2000/svg">
<path d="M2.04545 23.7502H7.66782L16.5109 31.142C16.7887 31.3736 17.1387 31.5003 17.5 31.5C17.7266 31.5002 17.9504 31.4499 18.1553 31.3528C18.4212 31.2279 18.6461 31.0297 18.8038 30.7812C18.9614 30.5328 19.0453 30.2445 19.0455 29.95V2.05092C19.0456 1.75628 18.9621 1.46768 18.8046 1.21897C18.6471 0.970247 18.4221 0.771708 18.1561 0.646617C17.8901 0.521527 17.5941 0.475067 17.3027 0.512684C17.0113 0.550301 16.7366 0.670436 16.5109 0.859009L7.66782 8.25073H2.04545C1.63557 8.25073 1.24248 8.41403 0.952653 8.7047C0.662824 8.99537 0.5 9.38961 0.5 9.80068V22.2003C0.5 22.6114 0.662824 23.0056 0.952653 23.2963C1.24248 23.5869 1.63557 23.7502 2.04545 23.7502ZM8.22727 15V11.3506C7 12 7.72217 12.7316 8 12.5V14L8.22727 15.5V19.5C7.94944 19.2684 7.66782 19.6502 8.22727 20.6503V15ZM26.7727 16.0005C26.7727 15.1783 26.4471 14.3899 25.8674 13.8085C25.2878 13.2272 24.5016 12.9006 23.6818 12.9006C23.2719 12.9006 22.8788 12.7373 22.589 12.4466C22.2992 12.1559 22.1364 11.7617 22.1364 11.3506C22.1364 10.9396 22.2992 10.5453 22.589 10.2547C22.8788 9.96398 23.2719 9.80068 23.6818 9.80068C25.3213 9.80068 26.8937 10.4539 28.053 11.6166C29.2123 12.7793 29.8636 14.3562 29.8636 16.0005C29.8636 17.6448 29.2123 19.2217 28.053 20.3844C26.8937 21.5471 25.3213 22.2003 23.6818 22.2003C23.2719 22.2003 22.8788 22.037 22.589 21.7463C22.2992 21.4556 22.1364 21.0614 22.1364 20.6503C22.1364 20.2393 22.2992 19.845 22.589 19.5544C22.8788 19.2637 23.2719 19.1004 23.6818 19.1004C24.5016 19.1004 25.2878 18.7738 25.8674 18.1924C26.4471 17.6111 26.7727 16.8226 26.7727 16.0005Z" fill="#E7B400"/>
</svg>
