<svg width="31" height="30" viewBox="0 0 31 30" fill="none" xmlns="http://www.w3.org/2000/svg">
<path d="M1.02634 26.7813L12.8257 15L1.02634 3.21872C0.684789 2.86563 0.495799 2.39273 0.500071 1.90187C0.504343 1.411 0.701535 0.94145 1.04918 0.594343C1.39682 0.247236 1.86709 0.0503459 2.35871 0.0460804C2.85033 0.0418149 3.32396 0.230515 3.67758 0.571538L15.477 12.3528L27.2763 0.571538C27.4493 0.392731 27.6562 0.250108 27.885 0.151992C28.1137 0.0538757 28.3597 0.00223077 28.6087 7.06859e-05C28.8577 -0.0020894 29.1046 0.0452781 29.335 0.13941C29.5654 0.233542 29.7748 0.372553 29.9508 0.548332C30.1269 0.724111 30.2661 0.933138 30.3604 1.16321C30.4547 1.39329 30.5021 1.63981 30.4999 1.88839C30.4978 2.13697 30.446 2.38263 30.3478 2.61104C30.2495 2.83944 30.1067 3.04602 29.9276 3.21872L18.1282 15L29.9276 26.7813C30.1067 26.954 30.2495 27.1606 30.3478 27.389C30.446 27.6174 30.4978 27.863 30.4999 28.1116C30.5021 28.3602 30.4547 28.6067 30.3604 28.8368C30.2661 29.0669 30.1269 29.2759 29.9508 29.4517C29.7748 29.6274 29.5654 29.7665 29.335 29.8606C29.1046 29.9547 28.8577 30.0021 28.6087 29.9999C28.3597 29.9978 28.1137 29.9461 27.885 29.848C27.6562 29.7499 27.4493 29.6073 27.2763 29.4285L15.477 17.6472L3.67758 29.4285C3.32396 29.7695 2.85033 29.9582 2.35871 29.9539C1.86709 29.9497 1.39682 29.7528 1.04918 29.4057C0.701535 29.0586 0.504343 28.589 0.500071 28.0981C0.495799 27.6073 0.684789 27.1344 1.02634 26.7813Z" fill="#F4F4F4"/>
</svg>
