<svg width="38" height="28" viewBox="0 0 38 28" fill="none" xmlns="http://www.w3.org/2000/svg">
<path fill-rule="evenodd" clip-rule="evenodd" d="M6.00004 3.625C5.4033 3.625 4.831 3.86205 4.40904 4.28401C3.98709 4.70597 3.75004 5.27826 3.75004 5.875V22.125C3.75004 22.7217 3.98709 23.294 4.40904 23.716C4.831 24.1379 5.4033 24.375 6.00004 24.375H32C32.5968 24.375 33.1691 24.1379 33.591 23.716C34.013 23.294 34.25 22.7217 34.25 22.125V5.875C34.25 5.27826 34.013 4.70597 33.591 4.28401C33.1691 3.86205 32.5968 3.625 32 3.625H6.00004ZM2.5 2.5C3.29703 1.70297 4.87287 1 6.00004 1H32C33.1272 1 34.703 1.70297 35.5 2.5C36.2971 3.29703 37 4.74783 37 5.875V22.125C37 23.2522 36.2971 24.703 35.5 25.5C34.703 26.297 33.1272 27 32 27H6.00004C4.87287 27 3.29703 26.297 2.5 25.5C1.70297 24.703 1 23.2522 1 22.125V6C1 4.87283 1.70297 3.29703 2.5 2.5Z" fill="#E7B400" stroke="#E7B400" stroke-width="0.3" stroke-linecap="round" stroke-linejoin="round"/>
<path fill-rule="evenodd" clip-rule="evenodd" d="M19 10.5C16.8599 10.5 15.5 11.8599 15.5 14C15.5 16.1401 16.8599 17.5 19 17.5C21.1401 17.5 22.5 16.1401 22.5 14C22.5 11.8599 21.1401 10.5 19 10.5ZM13.125 14C13.125 10.7553 15.7553 8.125 19 8.125C22.2447 8.125 24.875 10.7553 24.875 14C24.875 17.2447 22.2447 19.875 19 19.875C15.7553 19.875 13.125 17.2447 13.125 14Z" fill="#E7B400" stroke="#E7B400" stroke-width="0.3" stroke-linecap="round" stroke-linejoin="round"/>
<path fill-rule="evenodd" clip-rule="evenodd" d="M9.99951 3.36766C10.7792 3.36766 11.9998 0.587978 11.9998 1.36767C11.9998 4.17585 10.8843 6.86901 8.89859 8.85469C6.91291 10.8404 4.21975 11.9559 1.41158 11.9559C0.631884 11.9559 1.99995 11.2356 1.99995 10.4559C1.99995 9.67621 0.631884 9.13238 1.41158 9.13238C3.47091 9.13238 5.44589 8.31432 6.90206 6.85815C8.35822 5.40199 9.17629 3.427 9.17629 1.36767C9.17629 0.587978 9.21982 3.36766 9.99951 3.36766Z" fill="#E7B400" stroke="#E7B400" stroke-width="0.3" stroke-linecap="round" stroke-linejoin="round"/>
</svg>
