<svg width="24" height="25" viewBox="0 0 24 25" fill="none" xmlns="http://www.w3.org/2000/svg">
<path d="M12 24.5C14.3734 24.5 16.6935 23.7962 18.6668 22.4776C20.6402 21.1591 22.1783 19.2849 23.0865 17.0922C23.9948 14.8995 24.2324 12.4867 23.7694 10.1589C23.3064 7.83115 22.1635 5.69295 20.4853 4.01472C18.807 2.33649 16.6689 1.1936 14.3411 0.730582C12.0133 0.267559 9.60051 0.505199 7.4078 1.41345C5.21508 2.3217 3.34094 3.85977 2.02236 5.83316C0.703787 7.80655 0 10.1266 0 12.5C0.00375324 15.6814 1.26924 18.7315 3.51886 20.9811C5.76849 23.2308 8.81855 24.4962 12 24.5ZM12 2.68182C13.9419 2.68182 15.8401 3.25765 17.4547 4.33648C19.0693 5.41532 20.3277 6.94871 21.0708 8.74275C21.8139 10.5368 22.0084 12.5109 21.6295 14.4154C21.2507 16.32 20.3156 18.0694 18.9425 19.4425C17.5694 20.8156 15.82 21.7507 13.9154 22.1295C12.0109 22.5084 10.0368 22.3139 8.24274 21.5708C6.44871 20.8277 4.91532 19.5693 3.83648 17.9547C2.75764 16.3401 2.18182 14.4419 2.18182 12.5C2.18471 9.89694 3.22004 7.40133 5.06069 5.56069C6.90133 3.72005 9.39694 2.68471 12 2.68182ZM7.956 15.0015L10.4575 12.5L7.956 9.99855C7.75728 9.7928 7.64732 9.51723 7.64981 9.2312C7.65229 8.94517 7.76702 8.67156 7.96929 8.46929C8.17155 8.26703 8.44516 8.1523 8.7312 8.14981C9.01723 8.14733 9.2928 8.25729 9.49854 8.456L12 10.9575L14.5015 8.456C14.7072 8.25729 14.9828 8.14733 15.2688 8.14981C15.5548 8.1523 15.8284 8.26703 16.0307 8.46929C16.233 8.67156 16.3477 8.94517 16.3502 9.2312C16.3527 9.51723 16.2427 9.7928 16.044 9.99855L13.5425 12.5L16.044 15.0015C16.1482 15.1021 16.2313 15.2225 16.2885 15.3556C16.3456 15.4887 16.3757 15.6318 16.377 15.7767C16.3783 15.9215 16.3507 16.0652 16.2958 16.1992C16.2409 16.3333 16.1599 16.4551 16.0575 16.5575C15.9551 16.66 15.8333 16.741 15.6992 16.7958C15.5652 16.8507 15.4215 16.8783 15.2767 16.877C15.1318 16.8757 14.9887 16.8456 14.8556 16.7885C14.7225 16.7313 14.6021 16.6482 14.5015 16.544L12 14.0425L9.49854 16.544C9.2928 16.7427 9.01723 16.8527 8.7312 16.8502C8.44516 16.8477 8.17155 16.733 7.96929 16.5307C7.76702 16.3284 7.65229 16.0548 7.64981 15.7688C7.64732 15.4828 7.75728 15.2072 7.956 15.0015Z" fill="white"/>
</svg>
