<svg width="24" height="25" viewBox="0 0 24 25" fill="none" xmlns="http://www.w3.org/2000/svg">
<g clip-path="url(#clip0)">
<path d="M12 0.5C9.62663 0.5 7.30655 1.20379 5.33316 2.52236C3.35977 3.84094 1.8217 5.71508 0.913451 7.9078C0.00519941 10.1005 -0.232441 12.5133 0.230582 14.8411C0.693605 17.1689 1.83649 19.307 3.51472 20.9853C5.19295 22.6635 7.33115 23.8064 9.65892 24.2694C11.9867 24.7324 14.3995 24.4948 16.5922 23.5865C18.7849 22.6783 20.6591 21.1402 21.9776 19.1668C23.2962 17.1934 24 14.8734 24 12.5C24 10.9241 23.6896 9.3637 23.0866 7.9078C22.4835 6.45189 21.5996 5.12902 20.4853 4.01472C19.371 2.90041 18.0481 2.0165 16.5922 1.41345C15.1363 0.810389 13.5759 0.5 12 0.5ZM12 22.1C10.1013 22.1 8.24524 21.537 6.66653 20.4821C5.08782 19.4272 3.85736 17.9279 3.13076 16.1738C2.40416 14.4196 2.21405 12.4893 2.58447 10.6271C2.95488 8.76491 3.86919 7.05436 5.21178 5.71177C6.55436 4.36919 8.26492 3.45488 10.1271 3.08446C11.9894 2.71404 13.9196 2.90415 15.6738 3.63076C17.4279 4.35736 18.9272 5.58781 19.9821 7.16652C21.037 8.74524 21.6 10.6013 21.6 12.5C21.6 15.0461 20.5886 17.4879 18.7882 19.2882C16.9879 21.0886 14.5461 22.1 12 22.1Z" fill="white"/>
<path d="M11.9998 18.5C12.6625 18.5 13.1998 17.9627 13.1998 17.3C13.1998 16.6372 12.6625 16.1 11.9998 16.1C11.3371 16.1 10.7998 16.6372 10.7998 17.3C10.7998 17.9627 11.3371 18.5 11.9998 18.5Z" fill="white"/>
<path d="M11.9998 6.5C11.6815 6.5 11.3763 6.62643 11.1513 6.85147C10.9262 7.07652 10.7998 7.38174 10.7998 7.7V13.7C10.7998 14.0183 10.9262 14.3235 11.1513 14.5485C11.3763 14.7736 11.6815 14.9 11.9998 14.9C12.3181 14.9 12.6233 14.7736 12.8483 14.5485C13.0734 14.3235 13.1998 14.0183 13.1998 13.7V7.7C13.1998 7.38174 13.0734 7.07652 12.8483 6.85147C12.6233 6.62643 12.3181 6.5 11.9998 6.5Z" fill="white"/>
</g>
<defs>
<clipPath id="clip0">
<rect width="24" height="24" fill="white" transform="translate(0 0.5)"/>
</clipPath>
</defs>
</svg>
