<svg width="24" height="25" viewBox="0 0 24 25" fill="none" xmlns="http://www.w3.org/2000/svg">
<g clip-path="url(#clip0)">
<path d="M9.21412 11.6481C8.98757 11.4221 8.6803 11.2952 8.3599 11.2952C8.03951 11.2952 7.73224 11.4221 7.50568 11.6481C7.27913 11.8741 7.15186 12.1805 7.15186 12.5001C7.15186 12.8197 7.27913 13.1261 7.50568 13.3521L11.1151 16.9521C11.2275 17.0633 11.3608 17.1513 11.5074 17.211C11.654 17.2707 11.8109 17.301 11.9693 17.3001C12.134 17.2949 12.2959 17.256 12.4449 17.1858C12.5939 17.1156 12.7269 17.0156 12.8355 16.8921L21.2574 7.29209C21.4519 7.05128 21.5456 6.7449 21.5191 6.43683C21.4927 6.12875 21.348 5.84277 21.1152 5.6385C20.8825 5.43423 20.5797 5.32745 20.27 5.34041C19.9602 5.35338 19.6675 5.48509 19.4527 5.70809L11.9693 14.3481L9.21412 11.6481Z" fill="white"/>
<path d="M22.7969 11.3C22.4778 11.3 22.1718 11.4264 21.9461 11.6515C21.7205 11.8765 21.5938 12.1817 21.5938 12.5C21.5938 15.0461 20.5797 17.4879 18.7747 19.2882C16.9696 21.0886 14.5215 22.1 11.9688 22.1C10.0679 22.0991 8.2099 21.5369 6.629 20.4842C5.04809 19.4316 3.81508 17.9356 3.08546 16.1849C2.35583 14.4343 2.16226 12.5073 2.52914 10.6471C2.89603 8.78683 3.80695 7.07658 5.14703 5.732C6.03819 4.83126 7.10052 4.11685 8.27186 3.63058C9.4432 3.1443 10.7 2.89593 11.9688 2.9C12.7381 2.9048 13.5046 2.99333 14.2547 3.164C14.4117 3.21243 14.5769 3.22827 14.7402 3.21056C14.9036 3.19285 15.0616 3.14195 15.2044 3.06101C15.3473 2.98008 15.472 2.87081 15.5709 2.73995C15.6698 2.60909 15.7408 2.45941 15.7795 2.30014C15.8182 2.14087 15.8238 1.97538 15.7959 1.81388C15.768 1.65238 15.7072 1.49829 15.6173 1.36111C15.5274 1.22393 15.4103 1.10657 15.2732 1.01625C15.1361 0.925942 14.9819 0.864597 14.8202 0.836C13.8855 0.616691 12.9289 0.503969 11.9688 0.5C9.59178 0.512316 7.27174 1.22662 5.30139 2.55278C3.33105 3.87894 1.7987 5.75751 0.897741 7.95144C-0.00322137 10.1454 -0.232427 12.5563 0.239049 14.88C0.710525 17.2038 1.86155 19.3361 3.54688 21.008C5.78071 23.237 8.80893 24.4926 11.9688 24.5C15.1596 24.5 18.2198 23.2357 20.4761 20.9853C22.7324 18.7348 24 15.6826 24 12.5C24 12.1817 23.8732 11.8765 23.6476 11.6515C23.422 11.4264 23.116 11.3 22.7969 11.3Z" fill="white"/>
</g>
<defs>
<clipPath id="clip0">
<rect width="24" height="24" fill="white" transform="translate(0 0.5)"/>
</clipPath>
</defs>
</svg>
