<svg width="22" height="29" viewBox="0 0 22 29" fill="none" xmlns="http://www.w3.org/2000/svg">
<path d="M2.44414 0.270903C2.20749 0.109024 1.93241 0.0160487 1.64825 0.00189761C1.3641 -0.0122535 1.08152 0.0529499 0.830681 0.190552C0.579838 0.328154 0.370136 0.532993 0.223947 0.783214C0.0777584 1.03343 0.000567792 1.31965 0.000610369 1.61133V27.3887C0.000567792 27.6803 0.0777584 27.9666 0.223947 28.2168C0.370136 28.467 0.579838 28.6718 0.830681 28.8094C1.08152 28.9471 1.3641 29.0123 1.64825 28.9981C1.93241 28.984 2.20749 28.891 2.44414 28.7291L21.301 15.8404C21.5162 15.6933 21.6927 15.494 21.8147 15.2601C21.9368 15.0263 22.0006 14.7652 22.0006 14.5C22.0006 14.2348 21.9368 13.9737 21.8147 13.7399C21.6927 13.506 21.5162 13.3067 21.301 13.1596L2.44414 0.270903ZM13.2095 11.5L3.14342 4.62244L17.6003 14.5L13.2095 11.5Z" fill="white"/>
</svg>
