<svg width="50" height="50" viewBox="0 0 50 50" fill="none" xmlns="http://www.w3.org/2000/svg">
<rect width="50" height="50" rx="10" fill="#525252"/>
<path d="M35.9028 23.7778C35.5455 23.7778 35.2028 23.9197 34.9501 24.1724C34.6975 24.425 34.5556 24.7677 34.5556 25.125V33.2083C34.5556 33.5656 34.4136 33.9083 34.161 34.161C33.9083 34.4136 33.5656 34.5556 33.2083 34.5556H17.0417C16.6844 34.5556 16.3417 34.4136 16.089 34.161C15.8364 33.9083 15.6944 33.5656 15.6944 33.2083V17.0417C15.6944 16.6844 15.8364 16.3417 16.089 16.089C16.3417 15.8364 16.6844 15.6944 17.0417 15.6944H25.125C25.4823 15.6944 25.825 15.5525 26.0776 15.2999C26.3303 15.0472 26.4722 14.7045 26.4722 14.3472C26.4722 13.9899 26.3303 13.6472 26.0776 13.3946C25.825 13.1419 25.4823 13 25.125 13H17.0417C15.9697 13 14.9417 13.4258 14.1838 14.1838C13.4258 14.9417 13 15.9697 13 17.0417V33.2083C13 34.2803 13.4258 35.3083 14.1838 36.0662C14.9417 36.8242 15.9697 37.25 17.0417 37.25H33.2083C34.2803 37.25 35.3083 36.8242 36.0662 36.0662C36.8242 35.3083 37.25 34.2803 37.25 33.2083V25.125C37.25 24.7677 37.1081 24.425 36.8554 24.1724C36.6028 23.9197 36.2601 23.7778 35.9028 23.7778Z" fill="white"/>
<path d="M30.5139 15.6944H32.6426L24.1685 24.155C24.0423 24.2802 23.942 24.4292 23.8736 24.5934C23.8052 24.7576 23.77 24.9337 23.77 25.1115C23.77 25.2894 23.8052 25.4655 23.8736 25.6296C23.942 25.7938 24.0423 25.9428 24.1685 26.0681C24.2938 26.1943 24.4428 26.2946 24.6069 26.3629C24.7711 26.4313 24.9472 26.4666 25.1251 26.4666C25.3029 26.4666 25.479 26.4313 25.6432 26.3629C25.8073 26.2946 25.9563 26.1943 26.0816 26.0681L34.5556 17.6075V19.7361C34.5556 20.0934 34.6975 20.4361 34.9502 20.6887C35.2029 20.9414 35.5455 21.0833 35.9028 21.0833C36.2601 21.0833 36.6028 20.9414 36.8555 20.6887C37.1081 20.4361 37.2501 20.0934 37.2501 19.7361V14.3472C37.2501 13.9899 37.1081 13.6472 36.8555 13.3946C36.6028 13.1419 36.2601 13 35.9028 13H30.5139C30.1566 13 29.814 13.1419 29.5613 13.3946C29.3087 13.6472 29.1667 13.9899 29.1667 14.3472C29.1667 14.7045 29.3087 15.0472 29.5613 15.2999C29.814 15.5525 30.1566 15.6944 30.5139 15.6944Z" fill="white"/>
</svg>
