<svg width="50" height="50" viewBox="0 0 50 50" fill="none" xmlns="http://www.w3.org/2000/svg">
<path d="M0 10C0 4.47715 4.47715 0 10 0H40C45.5228 0 50 4.47715 50 10V40C50 45.5228 45.5228 50 40 50H10C4.47715 50 0 45.5228 0 40V10Z" fill="#2C2C2C"/>
<path fill-rule="evenodd" clip-rule="evenodd" d="M40 2H10C5.58172 2 2 5.58172 2 10V40C2 44.4183 5.58172 48 10 48H40C44.4183 48 48 44.4183 48 40V10C48 5.58172 44.4183 2 40 2ZM10 0C4.47715 0 0 4.47715 0 10V40C0 45.5228 4.47715 50 10 50H40C45.5228 50 50 45.5228 50 40V10C50 4.47715 45.5228 0 40 0H10Z" fill="#CB9200"/>
<path d="M25 14.1613C24.6353 14.1613 24.2856 14.3021 24.0277 14.5526C23.7699 14.8031 23.625 15.1429 23.625 15.4972V35.5351C23.625 35.8894 23.7699 36.2292 24.0277 36.4797C24.2856 36.7303 24.6353 36.871 25 36.871C25.3647 36.871 25.7144 36.7303 25.9723 36.4797C26.2301 36.2292 26.375 35.8894 26.375 35.5351V15.4972C26.375 15.1429 26.2301 14.8031 25.9723 14.5526C25.7144 14.3021 25.3647 14.1613 25 14.1613ZM34.625 24.8482C34.2603 24.8482 33.9106 24.989 33.6527 25.2395C33.3949 25.49 33.25 25.8298 33.25 26.1841V35.5351C33.25 35.8894 33.3949 36.2292 33.6527 36.4797C33.9106 36.7303 34.2603 36.871 34.625 36.871C34.9897 36.871 35.3394 36.7303 35.5973 36.4797C35.8551 36.2292 36 35.8894 36 35.5351V26.1841C36 25.8298 35.8551 25.49 35.5973 25.2395C35.3394 24.989 34.9897 24.8482 34.625 24.8482ZM15.375 19.5048C15.0103 19.5048 14.6606 19.6455 14.4027 19.896C14.1449 20.1466 14 20.4863 14 20.8406V35.5351C14 35.8894 14.1449 36.2292 14.4027 36.4797C14.6606 36.7303 15.0103 36.871 15.375 36.871C15.7397 36.871 16.0894 36.7303 16.3473 36.4797C16.6051 36.2292 16.75 35.8894 16.75 35.5351V20.8406C16.75 20.4863 16.6051 20.1466 16.3473 19.896C16.0894 19.6455 15.7397 19.5048 15.375 19.5048Z" fill="white"/>
</svg>
